<?xml version="1.0" encoding="UTF-8"?>
<svg id="Layer_1" data-name="Layer 1" xmlns="http://www.w3.org/2000/svg" version="1.1" viewBox="0 0 1663.8 256.6">
  <defs>
    <style>
      .cls-1 {
        fill: #edbc31;
      }

      .cls-1, .cls-2, .cls-3, .cls-4 {
        stroke-width: 0px;
      }

      .cls-2 {
        fill: #304381;
      }

      .cls-3 {
        fill: #ecbc33;
      }

      .cls-4 {
        fill: #304282;
      }
    </style>
  </defs>
  <path class="cls-4" d="M320.1,65.6c-1.2,2.2-.8,3.8-.8,5.4,0,21.5-.1,43,0,64.4,0,4.2-.7,5.9-5.4,5.7-9.3-.4-18.7-.3-28,0-3.9,0-4.7-1.2-4.7-4.8.1-43.1.1-86.2,0-129.4,0-4.1,1.3-5,5.1-4.9,8.5.3,17,.3,25.5,0,3.5-.1,5.7.9,7.9,3.8,16.3,21.7,32.7,43.3,49.1,64.9,1.8,2.4,3.6,4.7,5.7,7.5,1.2-2,.8-3.8.8-5.4,0-21.8.1-43.6,0-65.4,0-4,.7-5.5,5.1-5.4,9.3.3,18.7.2,28,0,3.3,0,4.7.7,4.7,4.4,0,43.5,0,86.9,0,130.4,0,3.7-1.5,4.4-4.7,4.3-8.7-.2-17.3-.2-26,0-3.3,0-5.4-1-7.5-3.6-17.2-22.9-34.7-45.6-52-68.4-.8-1-1.6-2.1-2.8-3.5h0Z"/>
  <path class="cls-1" d="M1284.3,65.9c-1.7,2.1-1.1,4-1.1,5.7,0,21.1,0,42.3,0,63.4,0,4.4-1.1,6.3-5.8,6.1-9.1-.3-18.3-.2-27.5,0-3.4,0-4.7-1.1-4.7-4.6V6.7c0-3.6,1.4-4.6,4.8-4.5,9,.1,18,.2,27,0,3.1,0,4.8,1.5,6.5,3.7,16.7,22.2,33.5,44.3,50.3,66.5,1.4,1.8,2.8,3.6,4.5,5.8,1.4-2,.9-3.9.9-5.5V8.8q0-6.5,6.7-6.5c8.7,0,17.3.1,26,0,3.3,0,4.7.7,4.7,4.4,0,43.4,0,86.9,0,130.3,0,3.3-1.1,4.3-4.3,4.3-8.3-.2-16.7-.3-25,0-4.1,0-6.7-1.2-9.2-4.5-16.7-22.2-33.6-44.3-50.4-66.4-1.1-1.4-2.2-2.8-3.4-4.3v-.2Z"/>
  <path class="cls-4" d="M960.5,71.8v64.4c0,3.6-.7,5-4.6,4.9-10.8-.3-21.7-.2-32.5,0-3.3,0-4.2-1-4.2-4.2.2-14.3,0-28.6.2-43,0-4-1.2-5-5.1-4.9-12.8.2-25.7.3-38.5,0-4.2,0-5.7.8-5.6,5.4.3,14,0,28,.2,42,0,3.7-.9,4.9-4.7,4.8-10.7-.3-21.3-.2-32,0-3.3,0-4.7-.6-4.7-4.3,0-43.5,0-86.9,0-130.4s.8-4.4,4.2-4.3c11,.2,22,.2,33,0,3.3,0,4.2,1,4.2,4.2,0,15.1,0,30.3-.2,45.5,0,4.6,1.4,5.5,5.6,5.4,12.7-.3,25.3-.3,38,0,4.2,0,5.7-.8,5.6-5.4-.3-15,0-30-.2-45,0-3.7.9-4.9,4.7-4.8,10.7.3,21.3.3,32,0,3.9,0,4.7,1.2,4.7,4.8-.2,21.6,0,43.3,0,64.9h0Z"/>
  <path class="cls-1" d="M1441.6,53.8c9-10.3,17.9-20.6,26.9-30.8,5.1-5.9,10.3-11.8,15.4-17.7,1.6-1.8,3.2-3.2,5.9-3.2h41.5c.6,0,1.2.2,2.8.6-5.9,6.7-11.3,12.9-16.7,19-9.9,11.2-19.8,22.5-29.9,33.5-2.4,2.6-2.3,4.4-.4,7.3,15.9,24.4,31.7,48.9,47.5,73.3.9,1.3,2.7,2.7,1.8,4.3-.9,1.6-3.1.8-4.6.8h-38.5c-3.6,0-5.8-1.1-7.7-4.2-8.7-14-17.7-27.8-26.4-41.8-2.1-3.4-3.7-4.2-6.5-.7-2.9,3.6-6.1,7.1-9.3,10.4-2,2.1-2.9,4.3-2.8,7.1,0,8.2,0,16.3,0,24.5s-1.1,4.8-4.6,4.7c-10.7-.2-21.3-.2-32,0-3.5,0-4.6-1.4-4.6-4.8V6.8c0-3.7,1.3-5,5-4.9,10.5.2,21,.2,31.5,0,3.8,0,4.8,1.5,4.8,5.1,0,13.6,0,27.3,0,40.9v5.4c.4.1.8.3,1.2.4h-.3Z"/>
  <path class="cls-4" d="M559.2,71.4c0-21.3,0-42.6,0-63.9,0-4.1.7-5.8,5.4-5.7,34.1.2,68.3.2,102.4,0,4.7,0,6,1.4,5.7,5.9-.3,7.1-.4,14.3,0,21.5.2,4.3-1.6,4.9-5.3,4.9-20-.1-40-.1-60,0-8.1,0-6.9-.9-7.1,7.3,0,3.5.2,7,0,10.5-.3,3.6,1.1,4.4,4.5,4.4,18.8-.1,37.6,0,56.5-.2,4,0,5.2,1.1,5,5-.3,7.5-.2,15,0,22.5,0,3.5-1.1,4.5-4.6,4.5-18.8-.1-37.6,0-56.5-.2-3.9,0-5.3,1.1-5,5,.3,3.8.4,7.7,0,11.5-.4,4.2,1.4,4.9,5.1,4.9,21.3,0,42.6,0,64-.2,4.3,0,5.4,1.3,5.3,5.4-.3,7.5-.2,15,0,22.5,0,2.8-.5,4.2-3.8,4.2-36,0-72,0-107.9,0-4,0-3.7-2.1-3.7-4.7v-65.1Z"/>
  <path class="cls-1" d="M1609.2,0c16.2.3,33.8,4.4,50.4,13.1,3.8,2,4.7,3.9,2.6,7.8-4,7.7-7.7,15.5-11.3,23.4-1.4,3.1-2.9,3.2-5.7,1.8-12.6-6.5-25.7-12-40-13.4-7.2-.7-12.4,1.5-13.4,5.9-1,4.2,2.2,8.3,8.9,11.1,6.2,2.5,12.7,4.1,19.1,5.9,7,2,14,4.3,20.7,7.4,16.5,7.7,24.4,20.3,23.2,38.7-1.1,17.1-10.3,28.1-25.4,34.5-19.4,8.3-39.4,7.2-59.3,2.4-12.6-3-24.3-8.1-35.1-15.4-3-2-4-3.9-2.1-7.3,4-7.5,7.8-15.1,11.3-22.8,1.7-3.6,3.1-3.8,6.3-1.5,12.9,9.3,27,15.7,42.9,18,3.7.5,7.3.5,10.9-.4,4-1,7.2-3,7.9-7.3.7-4.4-2-7.2-5.4-9.3-4.9-2.9-10.5-4.2-16-5.7-9.7-2.6-19.4-4.9-28.5-9.3-13.3-6.4-21.6-16.1-22.2-31.6-.6-17.1,6.5-29.6,21.2-37.8C1581.6,1.8,1594,0,1609.3,0h0Z"/>
  <path class="cls-4" d="M685.2,71.6c-.9-35.6,25.7-67.8,68.9-70.4,22.5-1.3,42.2,5.8,59.4,20.2,3.6,3.1,3.8,5.1.5,8.6-6.1,6.6-11.8,13.6-17.4,20.5-2.2,2.7-3.6,3-6,.2-5.1-5.8-11.3-10.3-18.6-13-16.2-6-32.8.6-40.4,16.1-7.8,15.8-3.9,35.8,9.5,46.2,10.5,8.2,22,8.6,33.9,3.5,6-2.6,11.5-6,16.2-10.6,1.8-1.8,3.1-1.9,4.8,0,6.5,7.1,13.1,14.2,19.7,21.2,1.3,1.4,1.9,2.4.2,4.1-37.3,37.9-97.1,30.9-120.8-9.5-6.7-11.5-10-23.9-9.7-37.2h-.2Z"/>
  <path class="cls-4" d="M74.6,1c21,.3,39.3,7.5,54.9,21.5,2.5,2.3,2.7,3.8.4,6.4-6.4,7.2-12.6,14.6-18.7,22.1-2,2.4-3.2,2.5-5.3.1-5.4-6-11.8-10.8-19.5-13.5-15.6-5.5-31.7.7-39.5,15.4-7.5,14.1-5.4,32.3,5.4,43.7,9.7,10.3,21.6,12.5,34.8,7.9,7.2-2.5,13.6-6.4,19-11.7,1.9-1.9,3.1-1.9,4.8,0,6.5,7.1,13.1,14.2,19.7,21.2,1.3,1.4,1.8,2.4.2,4.1-37.1,37.7-96.5,31-120.3-8.6C-13.3,70.1,3.2,11.4,61.2,2c4.5-.7,8.9-1.1,13.5-1h-.1Z"/>
  <path class="cls-4" d="M201.1,58.1c5.1-9.7,9.8-18.8,14.6-27.9,4.3-8.3,8.6-16.5,12.9-24.8.8-1.6,1.4-3.4,3.8-3.4h38.4c.4,2.2-.8,3.5-1.5,4.9-14.9,28.4-29.8,56.9-44.9,85.2-1.9,3.7-2.8,7.3-2.7,11.4.2,11,0,22,.1,33,0,3.6-1.1,4.5-4.6,4.4-10.7-.2-21.3-.2-32,0-3.6,0-4.9-.8-4.8-4.6.3-11.3,0-22.6.1-34,0-2.9-.6-5.5-2-8.1-15.6-29.2-31.1-58.5-46.7-87.6-2.2-4.1-1.4-4.8,2.9-4.7,10.7.2,21.3.2,32,0,3.3,0,5,1.1,6.5,4,8.2,15.8,16.7,31.4,25.1,47.1.8,1.5,1.6,2.9,2.8,5h0Z"/>
  <path class="cls-4" d="M485.9,2.1h56.5c3.4,0,4.7.8,4.6,4.4-.2,8.2-.2,16.3,0,24.5,0,3.2-.9,4.3-4.3,4.2-10.5-.2-21,.1-31.5-.2-4-.1-5,1.2-5,5.1,0,31.6,0,63.3.2,94.9,0,5.3-1.5,6.3-6.4,6.1-10.2-.4-20.3-.3-30.5,0-4.1,0-5-1.3-4.9-5.1,0-31.6,0-63.3.2-94.9,0-4.7-1.1-6.3-6.1-6.1-9.8.4-19.7,0-29.5.2-3.6,0-5.1-.7-4.9-4.6.3-8,.2-16,0-24,0-3.5,1-4.5,4.5-4.5,19,.2,38,0,57,0h.1Z"/>
  <path class="cls-1" d="M1034,2.1c18.5,0,37,.1,55.5,0,4.5,0,5.9,1.4,5.7,5.8-.3,7.8-.4,15.6-.3,23.5,0,3.1-1.3,3.9-4.2,3.9-9.5-.1-19,0-28.5,0-5.1,0-7.7,2.5-7.7,7.5v90.9c0,5-2.6,7.5-7.7,7.5h-27c-6.5,0-6.6,0-6.6-6.8V47c0-7.8-3.9-11.7-11.6-11.7s-16-.1-24,0c-3.6,0-5.2-1-5.1-4.8.2-7.8.2-15.7,0-23.5,0-3.8,1.5-4.8,5.1-4.8,18.8.1,37.7,0,56.5,0h-.1Z"/>
  <path class="cls-2" d="M1010.1,219.9c0-10.1,3.5-18.9,10.8-26,7.5-7.2,19.5-4.4,22.9,5.1,1,2.9.9,4.7-2.6,6-7.8,3-11.8,10.4-10.2,17.8,1.7,7.9,8.1,13.2,16,13,7.3-.2,14-5.7,15.2-12.8,1.5-8-2.5-15.2-10.5-18.1-2.8-1-3.5-2.5-3.4-5.1.2-3.7,0-7.3,0-11,0-5.5.6-5.9,6.1-4.7,14.8,3.2,25.8,15.1,28.3,30.6,2.3,13.8-4.6,28.8-17.1,36.2-12.1,7.3-24.7,7.5-37.1.8-11.9-6.4-18.6-18.4-18.7-32l.3.2Z"/>
  <path class="cls-4" d="M1203.5,219c0,6.2-.3,12.5,0,18.7.3,5-2.8,4.3-5.7,4.2-2.8,0-6,1-5.9-4.1.3-11.8.2-23.6,0-35.4,0-3.1.7-4.2,4.1-4.5,5.6-.5,9.3,1.2,12.3,6,3.5,5.6,7.8,10.7,12.8,16,0-5.8.3-11.7,0-17.5-.3-4.2,1.7-4.8,5-4.4,3,.3,6.9-1.5,6.7,4.3-.3,11.8-.2,23.6,0,35.4,0,3.2-1.1,4-4.3,4.3-5,.4-8.3-1.2-11-5.5-4-6.2-8.6-12-13-17.9l-1.1.4h0Z"/>
  <path class="cls-4" d="M944.9,221.9c0,5.5-.2,11,0,16.5,0,3.4-.8,4.6-4.4,4.6-8.2,0-8.1,0-8.2-8.2,0-8,.9-6.9-6.8-7h-.5c-9,0-7.4-1-7.7,7.7,0,2.4,1.3,6.1-.9,6.9-2.9,1.2-6.5.5-9.9.4-1.9,0-1.7-1.8-1.7-3v-35.5c0-2.6,1-3.3,3.5-3.4,9-.3,9-.4,9,8.3s0,8.5,9.1,8.8c4.8.2,6.8-1.2,6-6-.3-1.6.2-3.4,0-5-.9-5.2,1.3-6.5,6.2-6.2,6.3.4,6.4,0,6.4,6.6v14.5h0Z"/>
  <path class="cls-4" d="M1398.5,220c0,6,0,12,0,18,0,3-.8,4.1-3.9,4-9-.2-7.4.6-7.5-7.4,0-10.1,0-10.1-10-10h-4c-2.7-.2-4,.8-3.8,3.7.2,2.1,0,4.3,0,6.5,0,7.1-2.5,8.9-9.6,7.2-1.8-.4-2-1.5-2-2.9v-38c0-2,.9-2.8,3-3,8.2-.9,8.5-.6,8.6,7.8,0,9.6-1.7,8.5,8.4,8.5s9.2,1.2,9.3-9.2c0-6.9,2.6-8.7,9.4-7,2.5.6,2,2.4,2,3.9v18h0Z"/>
  <path class="cls-4" d="M950.8,221.6v-17c0-2.7.7-3.8,3.7-3.8,9.1.2,18.3.2,27.5,0,4.2,0,3.4,2.5,3.5,4.9,0,2.5.6,5-3.6,4.8-5-.3-10,0-15,0s-3.5.8-3.5,3.5,1.3,3,3.4,3c4,0,8,.3,12,0s4.6,1.4,4.7,4.9c0,3.8-1.2,5-4.9,4.8-3.1-.2-6.3-.2-9.5,0-2.3,0-5.6-1.4-5.7,3.3,0,5,3.5,3.4,5.9,3.5,4.3.2,8.7.2,13,0,3.9-.2,3.8,2.2,3.7,4.8,0,2.5.4,4.9-3.6,4.8-9.3-.2-18.6-.2-28,0-3,0-3.6-1.3-3.6-3.9v-17.5h0Z"/>
  <path class="cls-4" d="M1607.3,214.6v10.5c-.3,9.3-5.9,15.6-15.1,17-15.6,2.4-24.5-5.1-24.5-20.7s.2-11.7,0-17.5c0-3.5,1-4.6,4.6-4.6,7.7,0,7.7,0,7.7,7.4s0,11.3,0,17c.3,5.8,2.9,8.6,7.6,8.6s7.4-2.9,7.6-8.6c.2-6.7.3-13.3,0-20,0-3.3,1-4.3,4.3-4.4,7.7,0,7.7-.2,7.7,7.3v8h0Z"/>
  <path class="cls-4" d="M1275.3,220c0-6,0-12,0-18,0-3.1,1-4,4-4,8.2.2,16.3.2,24.5,0,3.9,0,3.9,2.1,3.7,4.8,0,2.5,1,5.6-3.6,5.4-4.5-.2-9,0-13.5,0s-3.6.9-3.5,3.5c0,2.5,1.3,3.1,3.5,3.1s6,.2,9,0c4-.4,4.7,1.5,4.6,5,0,3.1,0,5.7-4.4,5.2-2.8-.3-5.7,0-8.5,0s-4.2,0-4.2,3.3,1.8,3.7,4.5,3.6c4.2,0,8.3.2,12.5,0,4.9-.3,3.4,3.2,3.7,5.8.3,2.8,0,4.7-3.9,4.5-8.2-.3-16.3-.2-24.5,0-3.2,0-4-1.1-3.9-4.1.2-6,0-12,0-18h0Z"/>
  <path class="cls-4" d="M1468.2,228.3c0,10-.6,10.8-9.7,13.1-3.7.9-7.5,1.4-11.4.9-13.7-1.9-21.1-11.1-20-24.9.9-11.2,11.7-19.6,24.2-18.9,5.4.3,10.5,1.6,14.9,5,2.3,1.8,2.8,3,.2,5.3-3,2.7-5.1,5-9.4,1.5-4.1-3.2-10.8-1.9-14.4,1.4-3.5,3.4-4.5,9.1-2.4,13.9,2.1,4.7,6.6,6.8,12.3,6.5,5.2-.2,4.9-3.7,4.5-6.9-.6-5,1.3-6.1,6.1-6,8.6,0,3.2,6.6,4.9,9.1h.2Z"/>
  <path class="cls-4" d="M1311.1,220.8c0-10.8,5.3-18.6,14.1-21.8,9.8-3.5,20.1-1.4,25.6,5.5,1.1,1.4,3.9,2.9,1.6,5.4-2.6,2.9-8.2,3.6-10.2,1.6-4.8-4.8-11.3-5-15.9-.3-4.9,4.9-4.8,13.2,0,18,4.5,4.4,11,4.3,15.6-.2,2.1-2,9.8-.8,11,1.9.7,1.7-.6,2.8-1.5,4-4.9,6.9-14.2,9.6-23.8,7.1-8.9-2.3-15.4-9.5-16.4-18.1-.2-1.3-.2-2.7-.2-3.1h.1Z"/>
  <path class="cls-4" d="M1128.7,197.3c6.7,0,12.3,2.5,16.6,7.7,2.2,2.7,2.8,4.4-1.3,6.2-3.7,1.6-6.1,2.9-9.5-1.1-3.5-4.1-10.8-2.9-14.7,1.4-4.5,5-4.2,13.1.6,17.6,4.3,4.1,10.7,4.2,14.9.4,1.2-1,1.6-3.5,3.6-2.9,2.7.8,5.3,2.1,7.6,3.6,1.8,1.2,0,2.7-.8,3.8-5.8,7.5-13.4,9.9-22.6,8-9.3-1.9-15.6-7.3-17.7-16.7-3.4-15.6,7.1-28,23.3-28.1h0Z"/>
  <path class="cls-4" d="M817.8,221.8v-17.5c0-2.6.9-3.5,3.5-3.4,8.7,0,17.3.2,26,0,3.8,0,3.3,2.3,3.3,4.6s.6,5.2-3.5,5c-3.8-.2-7.7,0-11.5,0s-5.4-.4-5.4,4.1,2,4.5,5.2,4.3,6.3.2,9.5,0c3.6-.3,4.5,1.2,4.4,4.6,0,3.3-.3,5.5-4.5,5.1-3.5-.3-7,0-10.5,0-3,0-4.4.9-4,4v2c0,8.8,0,8.7-8.8,8.5-2.8,0-3.9-.9-3.8-3.7.2-5.8,0-11.6,0-17.5h0Z"/>
  <path class="cls-4" d="M1167.7,213.6c2.5-4.2,4.6-7.7,6.6-11.2,2.1-3.6,10.2-6.1,13.8-4.2,1.7.9.6,2,0,2.8-2.7,4.4-5.1,9-8.3,13-5.4,6.7-7.8,14.1-6.5,22.6.7,4.7-1.4,5.5-5.6,5.4-3.9,0-7-.2-6.1-5.4,1.5-8.9-1.4-16.6-6.9-23.5-1.6-2.1-3.2-4.3-4.2-6.7-1.1-2.8-6-5.1-3.2-8,2.6-2.8,11.4.5,13.6,4.1,2.1,3.5,4.2,7,6.8,11.2h0Z"/>
  <path class="cls-4" d="M735.4,201c4.8,0,9.7.3,14.5,0,4-.3,3.9,2.1,3.7,4.7-.2,2.4,1.2,5.4-3.4,5.5-8.7.2-8.7.4-8.7,9.4s-.2,12,0,17.9c0,3.3-.7,4.7-4.3,4.6-9.6-.4-8.1,1.3-8.3-8.1,0-6-.3-12,0-17.9.3-4.9-1.3-6.5-6.1-6.1-2.7.3-6.4,1.7-6.5-3.9,0-4.8,1.2-6.5,6.1-6,4.3.4,8.6,0,13,0h0Z"/>
  <path class="cls-4" d="M884.3,201c5,0,10,.2,15,0,4.2-.2,3.3,2.7,3.3,5.1s.9,5-3.3,5.1c-8.9.2-8.9.5-8.9,9.4s-.2,12,0,18c0,3.3-.6,4.8-4.3,4.6-9.6-.4-8.1,1.2-8.3-8.2,0-6.7,0-13.3,0-20,0-3-.8-4.4-3.9-3.9-.8,0-1.7,0-2.5,0-5.5,0-7.7-3.2-5.8-8.4.6-1.8,1.9-1.5,3.2-1.6h15.5Z"/>
  <path class="cls-4" d="M1248.3,224.7c0-4.3,0-8.6,0-12.9,0-2.9-1-3.9-3.8-3.6h-2.5c-5.6,0-7.7-3.2-5.9-8.4.6-1.7,1.9-1.7,3.2-1.7h29.4c4.1,0,3.4,2.7,3.4,5s.8,5-3.3,5.2c-8.9.4-8.9.6-8.9,9.5v19.9c0,3-.6,4.5-4.1,4.4-9.2-.3-7.3.7-7.5-7.3v-10h0Z"/>
  <path class="cls-3" d="M1046.6,208c6.8,0,12.1,5.1,12.2,11.8,0,6.9-5.3,12.3-12.3,12.2-6.6,0-12-5.5-12-12.1s5.5-12,12.1-12h0Z"/>
  <path class="cls-1" d="M1234.3,135.7c-17.7-43.1-35.5-86.2-53.2-129.3-1.4-3.4-3.3-4.4-6.7-4.4-10.2.2-20.3.4-30.5,0-5.6-.3-8.3,1.6-10.3,6.8-6.5,16.2-13.5,32.2-20.4,48.3-11.2,26.2-22.3,52.4-33.5,78.6-2.3,5.3-2.2,5.4,3.7,5.4,10.5,0,21-.2,31.5,0,4.1,0,6-1.4,7.2-5.1,1.5-4.6,3.4-9,5.1-13.6.8-2.3,2.2-3.4,4.8-3.4h48.5c2.8,0,4.2,1.3,5.1,3.8,1.5,4.2,3.5,8.3,4.6,12.7,1.2,4.6,3.8,6,8.3,5.7,5.1-.4,10.3,0,15.5,0h17c5.5,0,5.6,0,3.4-5.3v-.2ZM1168.8,89.1c-8.1-.2-16.3,0-24.4,0s-4.4,0-3.2-3.2c4.9-13.1,9.8-26.1,14.8-39.1,0-.2.5-.4,1-.7,2.2,3.4,3.1,7.3,4.5,10.9,3.4,9.2,6.7,18.4,10.1,27.6,1.1,3,1.2,4.6-2.8,4.6h0Z"/>
  <path class="cls-4" d="M1506.9,231.2c-1.4-1.7-1.7-2.8.4-4.4,5.5-4.2,6.9-10,5-16.5-1.9-6.6-6.9-9.5-13.3-10.5-7.1-1.1-14.3-.3-21.4-.4-2.6,0-3,1.5-2.9,3.6v35c0,1.3-.3,3.3,1.1,3.5,3.3.4,6.8.8,9.9,0,2.9-.7,1-4,1.5-6.1.4-1.6-1-4,1.7-4.6,2.4-.5,4.6-.3,6,2.2,1.3,2.3,2.9,4.4,4.5,6.6,1.4,1.9,12,3.7,12.9,2,1.7-3.1-2.2-4.6-3.2-7s-1.4-2.3-2.2-3.3h0ZM1492.1,220.9c-3.3,0-5-2.3-5-6.8-.2-2.5-.7-5.7,4.7-5.3,5.8.5,8.6,2,8.7,6,0,4.1-2.6,6-8.5,6.1h.1Z"/>
  <path class="cls-4" d="M709.9,231.7c-1-1.6-1.2-2.7.4-4.2,5.3-4.8,6.3-10.8,4.1-17.3-2.3-6.6-7.9-8.7-14.2-9.1-6.5-.4-13,0-19.5-.2-2.2,0-2.9.9-2.9,2.9v35.9c0,1.3-.2,3,1.7,3,3.3,0,7,.8,9.8-.4,2.3-.9.6-4.5,1-6.9.2-1.5-.7-3.6,1.9-3.8,2.1-.2,4.4-.8,5.7,1.8,1,2.1,2,4.2,3.1,6.3.8,1.6,1.4,3.3,3.8,3.2,3.6-.2,7.2,0,12,0-2.7-4.5-4.8-7.9-6.9-11.2h0ZM694.8,221.9c-4.9,1.3-4.4-2.3-4.5-5.8,0-3.5,0-6.1,4.8-5.8,5.6.4,8.2,1.8,8.3,5.7,0,4.1-2.4,5.9-8.5,5.9h0Z"/>
  <path class="cls-4" d="M1539.6,198.4c-13.5,0-23.4,9.2-23.5,21.9,0,12.9,9.4,22.1,23.1,22.3,13.6.2,24.1-9.4,24-22.1,0-12.6-10.1-22-23.5-22h0ZM1539.4,232.2c-6.3,0-11.1-5.1-11.1-11.7s4.7-11.6,11-11.7c6.5,0,11.1,4.6,11.3,11.4,0,7-4.6,12-11.2,12h0Z"/>
  <path class="cls-4" d="M791.8,201c-13.3,0-23.3,9-23.3,21.4s9.7,21.5,22.6,21.6c13.3,0,23.1-9,23.2-21.4,0-12.3-9.5-21.4-22.6-21.5h0ZM791.5,233.4c-5.7,0-10.4-5.3-10.1-11.3.2-6,4.8-10.6,10.4-10.5,5.6,0,9.8,4.8,9.7,11.1,0,6.2-4.4,10.9-10,10.8h0Z"/>
  <path class="cls-4" d="M1638.5,199.8c-6.9-.7-13.9-.3-20.9-.5-2.6,0-2.9,1.7-2.9,3.7v17.4c0,5.2.3,10.3,0,15.4-.4,4.9,1.4,6.7,6.1,5.9,1.1-.2,2.3,0,3.5,0s2.4-.7,2.6-2.3c.4-2.7-1.3-6.5,1.1-8,2.2-1.4,5.8-.7,8.7-.9.8,0,1.6-.3,2.5-.4,9.1-1.7,14-7.2,13.8-15.5-.2-8.2-5.3-14-14.4-14.9h0ZM1631.8,221c-5.7.4-5.1-3-4.9-6.7-.5-3.5,0-5.8,4.7-5.5,6.1.4,8.8,2,8.7,6.3,0,4.1-2.6,5.4-8.6,5.9h.1Z"/>
  <path class="cls-4" d="M673.7,236.3c-4.3-10.4-8.8-20.8-12.8-31.4-1.2-3.2-3-4.4-6.3-4-1.8.2-3.7,0-5.5,0-1.9,0-3.1.5-3.9,2.3-5.1,12.3-10.4,24.5-15.6,36.7-.3.8-1.2,2.4,0,2.5,3.3.4,6.6.3,9.9.3s2.5-2.3,3.1-3.9c.7-1.8,1.4-3.5,3.8-3,4.9.8,10.2-1.8,14.8,1.7,0,0,0,.3.2.5.6,5,4,5.4,7.1,4.9,5.3,0,7.1-2.2,5.2-6.6ZM654.7,226.9h-7.1c.9-4.4,2.5-8.1,4.5-12.3,2.3,3.5,3.1,7,4.3,10.3.6,1.6-.4,2-1.7,2Z"/>
  <path class="cls-4" d="M620.9,201.9c-4.6-1.3-9.2-.8-13.3-.9-3.6,0-6.6,0-9.6,0-2.4,0-3.2.8-3.2,3.1v35.4c0,1.2-.4,3.1,1.4,3.3,3.4.3,7.2,1.1,10.3-.4,2-1,.9-4.3.8-6.5-.2-3.6,1.1-4.7,4.5-4.4,3.2.3,6.3,0,9.4-1,6.5-2,10.3-7.6,10.1-14.9-.2-6.9-3.9-11.7-10.4-13.6h0ZM611.7,222c-5.4.5-4.3-3-4.3-6.4-.3-2.8-.3-5.5,4.4-5.2,5.1.4,7.6,2,7.6,5.8s-2.5,5.3-7.6,5.8h-.1Z"/>
</svg>